<mxfile host="65bd71144e" modified="2020-10-21T11:59:44.021Z" agent="5.0 (Windows NT 10.0; Win64; x64) AppleWebKit/537.36 (KHTML, like Gecko) Code/1.50.1 Chrome/83.0.4103.122 Electron/9.2.1 Safari/537.36" version="13.6.5" etag="odAnwoGYokLba8NIJMmk">
    <diagram id="saY6A8nZziMfghIYvbc8" name="ページ1">
        <mxGraphModel dx="1120" dy="536" grid="1" gridSize="10" guides="1" tooltips="1" connect="1" arrows="1" fold="1" page="1" pageScale="1" pageWidth="1169" pageHeight="827" background="none" math="0" shadow="0">
            <root>
                <mxCell id="0"/>
                <mxCell id="1" parent="0"/>
                <mxCell id="11" value="1/0" style="edgeStyle=orthogonalEdgeStyle;orthogonalLoop=1;jettySize=auto;html=1;entryX=1;entryY=0.5;entryDx=0;entryDy=0;fontSize=30;strokeWidth=5;curved=1;fillColor=none;strokeColor=#000000;fontColor=#000000;labelBackgroundColor=#ffffff;labelBorderColor=none;" edge="1" parent="1" source="2" target="3">
                    <mxGeometry relative="1" as="geometry"/>
                </mxCell>
                <mxCell id="2" value="2" style="ellipse;whiteSpace=wrap;html=1;aspect=fixed;fontSize=30;strokeWidth=5;rounded=1;fillColor=none;strokeColor=#000000;fontColor=#000000;labelBackgroundColor=#ffffff;labelBorderColor=none;" vertex="1" parent="1">
                    <mxGeometry x="560" y="360" width="80" height="80" as="geometry"/>
                </mxCell>
                <mxCell id="15" value="0/1" style="edgeStyle=none;orthogonalLoop=1;jettySize=auto;html=1;exitX=1;exitY=0;exitDx=0;exitDy=0;entryX=0;entryY=1;entryDx=0;entryDy=0;fontSize=30;strokeWidth=5;curved=1;fillColor=none;strokeColor=#000000;fontColor=#000000;labelBackgroundColor=#ffffff;labelBorderColor=none;" edge="1" parent="1" source="3" target="4">
                    <mxGeometry relative="1" as="geometry"/>
                </mxCell>
                <mxCell id="16" value="1/1" style="edgeStyle=none;orthogonalLoop=1;jettySize=auto;html=1;exitX=0.5;exitY=0;exitDx=0;exitDy=0;entryX=0.5;entryY=1;entryDx=0;entryDy=0;fontSize=30;strokeWidth=5;curved=1;fillColor=none;strokeColor=#000000;fontColor=#000000;labelBackgroundColor=#ffffff;labelBorderColor=none;" edge="1" parent="1" source="3" target="5">
                    <mxGeometry relative="1" as="geometry"/>
                </mxCell>
                <mxCell id="3" value="3" style="ellipse;whiteSpace=wrap;html=1;aspect=fixed;fontSize=30;strokeWidth=5;rounded=1;fillColor=none;strokeColor=#000000;fontColor=#000000;labelBackgroundColor=#ffffff;labelBorderColor=none;" vertex="1" parent="1">
                    <mxGeometry x="320" y="360" width="80" height="80" as="geometry"/>
                </mxCell>
                <mxCell id="8" value="1/0" style="edgeStyle=orthogonalEdgeStyle;orthogonalLoop=1;jettySize=auto;html=1;exitX=0;exitY=1;exitDx=0;exitDy=0;entryX=1;entryY=1;entryDx=0;entryDy=0;fontSize=30;strokeWidth=5;curved=1;fillColor=none;strokeColor=#000000;fontColor=#000000;labelBackgroundColor=#ffffff;labelBorderColor=none;" edge="1" parent="1" source="4" target="5">
                    <mxGeometry relative="1" as="geometry"/>
                </mxCell>
                <mxCell id="10" value="0/0" style="edgeStyle=orthogonalEdgeStyle;orthogonalLoop=1;jettySize=auto;html=1;entryX=0.5;entryY=0;entryDx=0;entryDy=0;fontSize=30;strokeWidth=5;curved=1;fillColor=none;strokeColor=#000000;fontColor=#000000;labelBackgroundColor=#ffffff;labelBorderColor=none;" edge="1" parent="1" source="4" target="2">
                    <mxGeometry relative="1" as="geometry"/>
                </mxCell>
                <mxCell id="4" value="1" style="ellipse;whiteSpace=wrap;html=1;aspect=fixed;fontSize=30;strokeWidth=5;rounded=1;fillColor=none;strokeColor=#000000;fontColor=#000000;labelBackgroundColor=#ffffff;labelBorderColor=none;" vertex="1" parent="1">
                    <mxGeometry x="560" y="120" width="80" height="80" as="geometry"/>
                </mxCell>
                <mxCell id="7" value="0/0" style="edgeStyle=orthogonalEdgeStyle;orthogonalLoop=1;jettySize=auto;html=1;exitX=1;exitY=0;exitDx=0;exitDy=0;entryX=0;entryY=0;entryDx=0;entryDy=0;fontSize=30;strokeWidth=5;curved=1;fillColor=none;strokeColor=#000000;fontColor=#000000;labelBackgroundColor=#ffffff;labelBorderColor=none;" edge="1" parent="1" source="5" target="4">
                    <mxGeometry relative="1" as="geometry"/>
                </mxCell>
                <mxCell id="17" value="1/0" style="edgeStyle=orthogonalEdgeStyle;orthogonalLoop=1;jettySize=auto;html=1;exitX=0;exitY=0.5;exitDx=0;exitDy=0;entryX=0.5;entryY=0;entryDx=0;entryDy=0;fontSize=30;strokeWidth=5;curved=1;fillColor=none;strokeColor=#000000;fontColor=#000000;labelBackgroundColor=#ffffff;labelBorderColor=none;" edge="1" parent="1" source="5" target="5">
                    <mxGeometry relative="1" as="geometry">
                        <mxPoint x="360" y="110" as="targetPoint"/>
                        <Array as="points">
                            <mxPoint x="300" y="160"/>
                            <mxPoint x="300" y="100"/>
                            <mxPoint x="360" y="100"/>
                        </Array>
                    </mxGeometry>
                </mxCell>
                <mxCell id="5" value="0" style="ellipse;whiteSpace=wrap;html=1;aspect=fixed;fontSize=30;strokeWidth=5;rounded=1;fillColor=none;strokeColor=#000000;fontColor=#000000;labelBackgroundColor=#ffffff;labelBorderColor=none;" vertex="1" parent="1">
                    <mxGeometry x="320" y="120" width="80" height="80" as="geometry"/>
                </mxCell>
                <mxCell id="18" value="0/0" style="edgeStyle=orthogonalEdgeStyle;orthogonalLoop=1;jettySize=auto;html=1;exitX=0.5;exitY=1;exitDx=0;exitDy=0;entryX=1;entryY=0.5;entryDx=0;entryDy=0;fontSize=30;strokeWidth=5;curved=1;fillColor=none;strokeColor=#000000;fontColor=#000000;labelBackgroundColor=#ffffff;labelBorderColor=none;" edge="1" parent="1" source="2" target="2">
                    <mxGeometry relative="1" as="geometry"/>
                </mxCell>
            </root>
        </mxGraphModel>
    </diagram>
</mxfile>
